<?xml version="1.0" standalone="no"?>
<!DOCTYPE svg PUBLIC "-//W3C//DTD SVG 20010904//EN"
 "http://www.w3.org/TR/2001/REC-SVG-20010904/DTD/svg10.dtd">
<svg version="1.0" xmlns="http://www.w3.org/2000/svg"
 width="1165.000000pt" height="1165.000000pt" viewBox="0 0 1165.000000 1165.000000"
 preserveAspectRatio="xMidYMid meet">
<metadata>
Created by potrace 1.14, written by Peter Selinger 2001-2017
</metadata>
<g transform="translate(0.000000,1165.000000) scale(0.100000,-0.100000)"
fill="#000000" stroke="none">
<path d="M5745 11640 c-204 -43 -322 -167 -363 -383 -21 -109 47 -299 136
-378 86 -77 232 -127 337 -115 187 20 334 138 384 306 28 93 31 140 14 215
-17 76 -61 170 -103 217 -88 102 -275 166 -405 138z"/>
<path d="M2896 10469 c-117 -41 -204 -111 -256 -207 -76 -141 -80 -264 -12
-404 44 -91 81 -134 157 -182 97 -63 229 -90 322 -67 184 46 317 184 354 369
26 126 -33 297 -135 388 -46 42 -166 113 -166 98 0 -4 -7 -1 -15 6 -9 7 -52
14 -103 16 -69 3 -99 -1 -146 -17z"/>
<path d="M8486 10469 c-185 -64 -305 -224 -311 -413 -2 -61 3 -92 20 -141 24
-65 63 -133 99 -174 62 -70 220 -141 315 -141 104 0 247 59 320 131 21 21 58
77 82 124 41 81 43 90 44 173 0 99 -5 129 -33 192 -48 109 -132 189 -252 240
-78 33 -203 37 -284 9z"/>
<path d="M5725 10216 c-95 -30 -170 -89 -209 -165 -31 -59 -48 -158 -37 -217
30 -162 142 -268 308 -290 92 -12 230 41 291 110 62 72 98 203 79 289 -37 173
-154 276 -322 283 -38 1 -88 -3 -110 -10z"/>
<path d="M3860 9445 c-152 -49 -257 -195 -248 -345 12 -206 209 -364 404 -324
66 13 152 60 189 102 13 15 39 54 57 87 30 55 33 68 33 145 0 71 -4 94 -26
141 -37 79 -90 133 -167 171 -77 38 -169 47 -242 23z"/>
<path d="M7589 9445 c-144 -46 -250 -188 -249 -333 2 -144 102 -278 245 -327
92 -31 181 -19 277 38 63 37 94 71 131 146 28 57 32 76 32 146 0 66 -5 90 -26
136 -37 78 -87 130 -164 169 -77 39 -171 49 -246 25z"/>
<path d="M5780 8810 c-87 -18 -158 -74 -187 -148 -72 -188 87 -376 282 -333
145 33 223 175 175 319 -37 113 -157 185 -270 162z"/>
<path d="M4806 8414 c-206 -75 -221 -354 -25 -454 151 -78 338 32 353 207 14
170 -167 306 -328 247z"/>
<path d="M6681 8418 c-59 -16 -115 -63 -146 -120 -108 -197 89 -426 299 -348
97 37 157 120 162 225 3 53 -1 69 -30 120 -60 109 -170 157 -285 123z"/>
<path d="M1820 7692 c-113 -17 -225 -75 -290 -148 -34 -39 -84 -139 -95 -190
-41 -191 54 -407 214 -489 58 -29 158 -56 214 -56 76 -2 194 35 257 80 94 67
146 149 176 277 16 65 16 85 6 147 -24 142 -112 271 -224 328 -69 35 -197 61
-258 51z"/>
<path d="M9691 7683 c-194 -40 -323 -177 -353 -371 -20 -128 30 -281 122 -373
97 -97 263 -149 390 -122 189 41 311 159 354 341 45 194 -54 404 -230 487 -98
46 -187 59 -283 38z"/>
<path d="M3120 7586 c-155 -37 -237 -119 -273 -273 -33 -144 54 -315 188 -373
52 -22 145 -41 176 -35 174 34 266 113 305 265 25 99 6 193 -59 288 -65 97
-220 156 -337 128z"/>
<path d="M8390 7586 c-158 -34 -251 -137 -276 -308 -18 -118 75 -287 183 -334
55 -23 142 -43 172 -38 82 13 101 18 146 41 92 45 147 118 176 232 14 56 14
71 2 130 -29 139 -100 222 -225 264 -65 22 -115 26 -178 13z"/>
<path d="M4434 7486 c-88 -28 -138 -76 -167 -161 -62 -182 117 -364 303 -309
111 33 174 117 174 234 0 114 -55 194 -157 230 -65 23 -95 24 -153 6z"/>
<path d="M7085 7490 c-78 -20 -129 -59 -163 -125 -55 -110 -23 -249 72 -313
75 -51 168 -60 249 -24 58 26 93 60 118 118 84 189 -81 394 -276 344z"/>
<path d="M5753 7381 c-77 -35 -104 -129 -60 -206 72 -127 263 -82 272 63 4 65
-23 114 -78 141 -53 26 -80 26 -134 2z"/>
<path d="M4814 6551 c-70 -23 -106 -52 -138 -110 -68 -125 -31 -266 89 -336
123 -73 281 -22 345 110 57 118 8 260 -111 320 -63 32 -123 38 -185 16z"/>
<path d="M6705 6563 c-34 -7 -104 -45 -130 -71 -34 -33 -65 -101 -70 -153 -14
-133 91 -254 231 -266 185 -16 320 188 235 356 -48 93 -167 153 -266 134z"/>
<path d="M5765 6171 c-114 -28 -188 -123 -189 -241 -1 -186 192 -300 361 -214
46 23 64 40 89 82 42 70 50 125 28 204 -36 127 -161 200 -289 169z"/>
<path d="M3913 5729 c-63 -8 -151 -51 -198 -97 -19 -19 -49 -64 -67 -100 -29
-59 -33 -76 -33 -147 0 -65 5 -90 26 -135 38 -80 88 -131 165 -171 61 -30 76
-34 148 -34 90 0 159 25 225 81 100 84 146 240 105 360 -54 159 -214 264 -371
243z"/>
<path d="M7698 5735 c-2 -1 -25 -5 -53 -8 -103 -11 -192 -68 -248 -160 -47
-77 -60 -125 -55 -203 5 -79 53 -178 111 -229 68 -61 139 -90 227 -92 68 -2
83 2 145 32 85 41 122 75 166 157 32 58 34 69 34 153 0 81 -3 96 -32 151 -35
67 -90 122 -155 155 -41 21 -133 50 -140 44z"/>
<path d="M5713 4939 c-112 -35 -182 -107 -221 -225 -41 -124 -1 -270 95 -354
61 -54 169 -95 242 -91 84 4 198 56 247 113 31 38 70 119 78 163 3 17 8 40 10
52 7 33 -27 154 -58 206 -52 89 -179 158 -291 156 -22 0 -68 -9 -102 -20z"/>
<path d="M2940 4893 c-43 -9 -150 -61 -193 -95 -60 -47 -72 -63 -120 -157 -41
-83 -42 -86 -42 -186 0 -99 1 -103 42 -186 49 -99 90 -144 173 -193 148 -87
291 -88 444 -2 73 41 113 81 159 159 148 246 28 550 -255 646 -51 17 -156 24
-208 14z"/>
<path d="M8511 4885 c-255 -72 -401 -340 -312 -574 24 -64 75 -144 115 -183
17 -16 68 -47 114 -70 152 -74 290 -63 440 35 46 31 75 60 106 107 40 60 52
82 55 103 0 4 7 23 16 42 10 25 13 64 12 125 -3 81 -6 95 -45 173 -52 106
-100 154 -205 206 -71 35 -96 42 -163 46 -54 3 -96 0 -133 -10z"/>
<path d="M5718 3725 c-165 -41 -269 -141 -323 -311 -55 -178 33 -403 195 -496
97 -57 228 -77 328 -51 164 43 273 142 320 293 10 30 15 56 26 119 1 7 -1 39
-6 70 -29 194 -147 326 -335 374 -68 18 -138 18 -205 2z"/>
<path d="M5163 2089 c-54 -10 -97 -32 -134 -72 -43 -45 -60 -81 -66 -143 -15
-146 87 -264 233 -270 143 -6 257 104 256 246 0 97 -55 180 -146 220 -54 24
-87 29 -143 19z"/>
<path d="M6441 2079 c-106 -34 -178 -142 -168 -251 17 -188 225 -288 382 -184
58 38 105 114 111 179 17 174 -157 311 -325 256z"/>
<path d="M5675 1018 l0 -1013 188 -3 187 -2 0 1015 0 1015 -188 0 -187 0 0
-1012z"/>
<path d="M3472 1363 c40 -54 78 -104 85 -113 15 -20 297 -402 340 -461 l33
-46 -97 -136 c-54 -75 -136 -191 -183 -257 -47 -67 -89 -127 -95 -133 -5 -7
-19 -26 -31 -42 -11 -17 -44 -63 -72 -102 l-52 -73 228 0 227 1 132 202 c73
111 138 210 146 221 12 17 26 -1 157 -203 l143 -221 228 0 c217 0 228 1 214
17 -12 15 -216 301 -432 606 -26 37 -56 77 -65 89 -10 11 -18 25 -18 30 0 6
44 69 98 141 53 72 120 163 149 202 29 38 56 75 60 80 16 20 200 270 207 283
6 9 -40 12 -217 12 l-225 0 -29 -43 c-95 -143 -256 -366 -262 -363 -3 2 -69
94 -146 205 l-140 201 -228 0 -227 0 72 -97z"/>
<path d="M5024 1451 c-2 -2 -4 -330 -4 -728 l0 -723 185 0 185 0 0 53 c1 59 1
1326 0 1372 l0 30 -181 0 c-99 0 -183 -2 -185 -4z"/>
<path d="M6340 1452 c-7 -3 -10 -255 -10 -728 l0 -724 187 2 188 3 0 718 c0
423 -4 721 -9 724 -10 6 -339 10 -356 5z"/>
<path d="M7274 1431 c-121 -34 -225 -119 -284 -232 -37 -72 -45 -110 -45 -224
0 -72 5 -102 24 -150 47 -117 128 -204 236 -254 86 -41 113 -44 380 -46 160
-1 247 -5 261 -13 48 -26 32 -112 -24 -133 -17 -7 -185 -11 -454 -11 l-428 0
0 -184 0 -184 445 0 c288 0 463 4 497 11 199 42 353 223 362 428 9 191 -99
353 -281 421 -81 30 -107 33 -353 35 -274 3 -246 0 -275 30 -36 35 -34 88 4
126 l29 29 391 0 391 0 0 185 0 185 -407 -1 c-354 -1 -416 -3 -469 -18z"/>
</g>
</svg>
